<?xml version="1.0" standalone="no"?>
<!DOCTYPE svg PUBLIC "-//W3C//DTD SVG 20010904//EN"
 "http://www.w3.org/TR/2001/REC-SVG-20010904/DTD/svg10.dtd">
<svg version="1.0" xmlns="http://www.w3.org/2000/svg"
 width="300.000000pt" height="300.000000pt" viewBox="0 0 300.000000 300.000000"
 preserveAspectRatio="xMidYMid meet">
<metadata>
Created by potrace 1.11, written by Peter Selinger 2001-2013
</metadata>
<g transform="translate(0.000000,300.000000) scale(0.100000,-0.100000)"
fill="#000000" stroke="none">
<path d="M1491 2830 c-49 -24 -141 -106 -141 -127 0 -5 -4 -14 -9 -22 -8 -12
-16 -9 -45 17 -71 62 -112 77 -211 77 -78 0 -97 -4 -140 -27 -102 -53 -162
-144 -172 -256 l-6 -68 -46 12 c-106 27 -221 -12 -300 -102 -54 -61 -74 -118
-74 -205 0 -66 4 -84 31 -138 31 -58 31 -61 12 -61 -34 0 -112 -42 -153 -83
-61 -61 -91 -137 -91 -227 0 -59 5 -85 23 -120 37 -72 69 -108 121 -138 l50
-29 -29 -27 c-15 -15 -41 -52 -56 -81 -32 -64 -39 -160 -17 -236 34 -117 158
-211 281 -213 59 -1 60 -1 53 -26 -4 -14 -7 -59 -7 -100 0 -59 6 -86 24 -124
52 -106 161 -176 277 -177 73 -1 93 4 155 36 l46 25 12 -42 c28 -92 102 -170
191 -202 39 -14 70 -17 134 -14 76 4 87 7 142 44 38 25 71 58 93 91 l34 53 31
-30 c112 -111 302 -112 427 -2 52 45 92 133 97 209 4 59 6 63 25 57 44 -14
125 -13 176 2 71 20 124 57 165 113 49 69 61 107 60 191 -1 60 -6 85 -28 127
-31 62 -32 68 -7 70 69 5 175 95 214 181 31 69 30 191 -2 252 -37 71 -66 103
-120 134 l-50 30 30 30 c17 17 43 54 57 81 37 72 38 186 0 267 -49 105 -144
169 -261 176 -59 4 -67 7 -61 21 15 34 19 108 9 156 -23 104 -77 174 -170 223
-43 23 -63 27 -135 27 -74 0 -92 -4 -137 -27 -29 -16 -54 -28 -56 -28 -2 0
-10 19 -16 42 -53 176 -262 267 -430 188z m199 -70 c47 -13 106 -63 130 -111
11 -21 19 -39 18 -40 -2 0 -12 -2 -23 -4 -11 -2 -34 -7 -52 -10 -18 -3 -55
-21 -82 -39 l-50 -34 -40 46 c-43 51 -40 62 16 62 57 0 81 73 28 86 -36 9 -97
-5 -137 -31 -60 -40 -81 -27 -33 21 55 55 145 76 225 54z m-523 -85 c21 -9 45
-23 54 -31 16 -14 14 -18 -27 -56 -24 -22 -54 -63 -67 -90 -16 -35 -26 -46
-37 -42 -8 4 -33 12 -55 17 -22 6 -42 13 -45 14 -2 2 15 21 38 42 23 21 42 43
42 49 0 18 -30 42 -53 42 -32 0 -89 -51 -112 -99 -24 -50 -48 -55 -40 -10 24
133 177 216 302 164z m288 -114 c74 -34 120 -103 102 -153 -8 -26 -13 -28 -64
-28 -30 0 -63 -5 -74 -10 -21 -12 -26 -52 -6 -68 6 -5 64 -12 127 -15 130 -6
203 -23 307 -72 277 -130 444 -387 447 -685 1 -129 -5 -175 -38 -270 -89 -254
-291 -440 -551 -506 -95 -24 -275 -23 -370 1 -275 70 -479 267 -566 545 -34
108 -34 312 0 420 37 120 103 238 181 322 39 42 70 83 70 91 0 7 -9 22 -20 32
-19 17 -21 17 -47 0 -16 -9 -49 -40 -74 -68 -40 -44 -49 -49 -62 -38 -21 17
-48 100 -49 148 -1 115 95 203 207 190 50 -7 109 -38 119 -63 13 -35 6 -64
-19 -76 -46 -21 -41 -88 6 -88 10 0 49 16 88 35 81 41 98 68 60 97 -47 35 -50
40 -46 66 27 164 148 250 272 193z m760 -10 c86 -39 135 -115 135 -206 l0 -55
-37 16 c-24 11 -66 17 -114 17 l-76 0 -10 56 c-6 31 -9 58 -7 60 2 2 23 -4 47
-13 23 -9 46 -16 50 -16 13 0 37 47 31 63 -10 28 -92 59 -147 56 -55 -3 -72
11 -35 29 36 17 119 14 163 -7z m-288 -55 c59 -30 98 -94 102 -166 2 -35 -2
-50 -18 -64 -20 -18 -22 -18 -108 24 -49 24 -127 52 -175 64 -49 11 -88 24
-88 28 0 20 100 111 135 123 46 16 112 12 152 -9z m-1221 -148 c2 -2 -4 -24
-12 -48 -9 -26 -14 -71 -13 -109 l3 -66 -40 -6 c-21 -3 -49 -9 -61 -13 -28 -9
-29 1 -6 48 13 29 14 40 5 61 -11 24 -36 32 -58 17 -24 -16 -47 -79 -48 -134
-1 -31 -4 -59 -8 -63 -11 -11 -29 34 -33 81 -9 103 64 205 166 232 31 8 97 8
105 0z m1586 -132 c98 -47 132 -167 77 -266 -28 -50 -62 -58 -89 -20 -11 16
-20 31 -20 36 0 14 -79 112 -137 169 -54 53 -56 57 -38 68 62 37 146 42 207
13z m276 -100 c26 -13 55 -32 64 -43 30 -33 58 -107 58 -153 0 -44 -40 -150
-57 -150 -4 0 -27 20 -51 44 -23 24 -61 51 -85 62 -23 10 -43 19 -45 20 -3 2
29 103 36 114 2 2 18 -12 37 -33 47 -51 95 -47 95 8 0 30 -64 102 -105 116
-19 7 -37 19 -39 26 -9 21 40 16 92 -11z m-1818 -118 l27 -32 -19 -35 c-33
-58 -76 -174 -88 -238 l-12 -61 -29 10 c-41 14 -115 91 -130 135 -43 130 44
252 180 253 38 0 48 -5 71 -32z m-347 -203 c7 -51 29 -99 60 -133 l21 -23 -47
-44 c-52 -48 -63 -42 -66 38 -1 9 -13 23 -27 29 -23 11 -29 10 -45 -10 -25
-31 -16 -92 21 -154 33 -54 23 -74 -17 -37 -89 84 -90 245 -1 325 22 21 76 53
89 54 4 0 9 -20 12 -45z m2028 9 c148 -44 192 -214 81 -318 -43 -41 -73 -54
-99 -43 -19 9 -23 18 -24 61 -1 94 -19 205 -45 278 -13 37 -12 38 10 38 12 0
47 -7 77 -16z m-1821 -250 c39 -16 40 -18 40 -63 1 -76 28 -220 54 -282 17
-41 -139 -20 -200 26 -74 56 -97 153 -57 233 18 34 93 102 114 102 5 0 27 -7
49 -16z m2134 -76 c38 -76 32 -155 -18 -227 -32 -46 -132 -105 -124 -73 6 25
-19 100 -48 143 l-34 51 42 39 c24 21 46 38 50 39 3 0 9 -19 13 -42 9 -53 20
-68 51 -68 51 0 55 89 8 162 -13 21 -24 45 -24 53 0 30 57 -22 84 -77z m-291
-175 c121 -124 52 -314 -118 -328 -36 -3 -51 1 -71 18 l-25 22 45 87 c25 48
55 120 66 160 12 40 23 79 26 86 5 18 31 3 77 -45z m-2034 -112 c28 -27 70
-57 95 -66 43 -17 44 -17 30 -43 -8 -15 -17 -42 -20 -59 -5 -28 -9 -31 -24
-23 -10 6 -21 18 -25 28 -3 11 -17 24 -31 31 -23 10 -24 13 -10 27 31 31 13
74 -31 74 -22 0 -40 -22 -39 -49 1 -12 8 -18 45 -38 2 -1 -4 -9 -13 -18 -22
-22 -20 -47 6 -81 28 -36 44 -49 84 -69 18 -8 35 -22 38 -31 5 -13 1 -14 -27
-9 -156 34 -232 199 -155 335 13 22 24 40 25 40 1 0 24 -22 52 -49z m374 -153
c25 -40 75 -102 110 -137 l65 -65 -23 -18 c-61 -48 -163 -61 -230 -28 -53 25
-69 39 -89 77 -48 94 -8 227 72 236 20 2 40 4 43 5 3 1 26 -31 52 -70z m1767
-106 c15 -54 12 -92 -11 -142 -27 -60 -54 -88 -114 -116 -49 -23 -98 -30 -128
-18 -14 5 -14 10 -1 47 14 38 21 132 12 166 -2 9 8 15 27 17 43 5 58 9 72 17
21 13 23 -10 6 -56 -14 -38 -15 -48 -3 -62 8 -9 24 -15 39 -13 36 4 65 66 68
143 2 72 1 68 13 60 5 -3 14 -22 20 -43z m-342 -52 c35 -109 0 -209 -88 -255
-81 -42 -221 1 -228 71 -3 29 2 34 64 70 37 21 101 71 143 110 83 78 86 78
109 4z m-1085 -145 c51 -25 125 -53 164 -63 l72 -18 -20 -42 c-25 -51 -81 -99
-129 -112 -126 -35 -231 37 -247 167 -5 47 -3 52 28 81 19 18 35 32 37 32 2 0
44 -20 95 -45z m-431 -39 c20 -9 62 -14 105 -13 l71 2 11 -54 c6 -29 8 -57 6
-62 -3 -4 -21 -1 -39 8 -58 27 -110 -4 -84 -51 14 -26 78 -47 141 -48 31 -1
57 -4 57 -8 0 -30 -92 -44 -160 -24 -94 28 -160 116 -160 214 0 55 2 56 52 36z
m1113 -25 c16 -52 -30 -159 -88 -205 -35 -28 -46 -31 -105 -31 -58 0 -72 4
-109 30 -23 17 -51 45 -61 64 -18 31 -19 38 -6 75 l14 41 62 -1 c62 -1 189 17
243 35 42 13 43 13 50 -8z m120 -131 c6 -4 25 -11 43 -15 41 -9 40 -19 -3 -47
-19 -13 -35 -29 -35 -35 0 -15 -16 -17 -25 -3 -9 14 -48 13 -63 -2 -18 -18
-15 -43 9 -64 12 -10 22 -19 24 -19 10 0 45 40 45 52 0 9 6 7 20 -7 11 -11 26
-20 34 -20 25 0 91 61 114 106 24 47 42 57 42 24 0 -31 -23 -81 -55 -118 -67
-80 -189 -101 -279 -48 l-47 27 44 39 c26 24 54 61 68 93 23 53 33 59 64 37z
m-493 -152 c-4 -3 -24 -8 -46 -11 -50 -7 -61 -20 -57 -65 3 -37 109 -29 173
13 21 14 40 25 43 25 14 0 2 -29 -22 -52 -102 -95 -262 -78 -339 36 -34 50
-31 63 19 71 51 9 105 35 131 64 l20 21 42 -47 c23 -27 39 -51 36 -55z"/>
<path d="M1688 2676 c-10 -7 -18 -22 -18 -33 0 -49 68 -58 84 -11 8 23 6 31
-10 43 -24 18 -34 18 -56 1z"/>
<path d="M1081 2622 c-10 -19 -5 -61 8 -63 38 -8 54 -4 63 16 22 49 -46 93
-71 47z"/>
<path d="M1290 2347 c-31 -16 -37 -48 -12 -71 25 -22 67 -12 89 20 14 23 14
26 -2 44 -21 23 -40 25 -75 7z"/>
<path d="M1430 2267 c-3 -3 -26 -8 -51 -11 -214 -28 -432 -195 -542 -413 -75
-148 -94 -360 -47 -533 60 -221 235 -411 463 -501 78 -31 90 -33 239 -37 141
-4 165 -2 230 18 207 62 392 218 475 400 49 107 63 163 70 291 18 315 -171
611 -467 732 -36 15 -92 33 -125 41 -58 13 -235 22 -245 13z"/>
<path d="M2229 2411 c-21 -16 -22 -22 -11 -45 19 -42 82 -30 82 15 0 18 -25
49 -40 49 -4 0 -18 -8 -31 -19z"/>
<path d="M593 2293 c-7 -2 -13 -18 -13 -33 0 -36 30 -56 59 -40 25 13 30 30
18 58 -10 21 -35 27 -64 15z"/>
<path d="M2562 1918 c-19 -19 -14 -56 9 -69 25 -13 69 5 69 28 0 44 -49 70
-78 41z"/>
<path d="M326 1744 c-20 -51 16 -88 59 -60 38 25 17 75 -31 76 -12 0 -25 -7
-28 -16z"/>
<path d="M2602 1313 c-11 -21 -5 -44 16 -59 21 -16 52 -5 62 20 12 31 -6 56
-40 56 -18 0 -33 -7 -38 -17z"/>
<path d="M2354 782 c-18 -12 -23 -39 -10 -58 19 -26 53 -27 70 -3 21 31 3 69
-34 69 -8 0 -20 -4 -26 -8z"/>
<path d="M728 663 c-37 -10 -33 -64 6 -78 23 -8 30 -6 42 10 18 24 18 40 -2
59 -16 16 -17 17 -46 9z"/>
<path d="M1260 392 c-28 -23 -20 -59 16 -68 46 -12 72 37 38 70 -20 20 -27 20
-54 -2z"/>
</g>
</svg>
